<svg preserveAspectRatio="none" width="100%" height="100%" overflow="visible" style="display: block;" viewBox="0 0 203 57" fill="none" xmlns="http://www.w3.org/2000/svg">
<g id="Logo">
<g id="Group 74">
<path id="Vector 246 (Stroke)" d="M24.1223 27.2165C24.1268 27.2158 24.1329 27.2148 24.1398 27.2136C24.1744 27.2079 24.2383 27.1971 24.3277 27.1802C24.5084 27.146 24.7889 27.0882 25.1365 27.0015C25.8448 26.8248 26.7675 26.5443 27.6857 26.1319C29.7261 25.2154 30.6429 24.1813 30.8325 23.2134C31.2109 21.2797 30.7232 19.7862 29.8387 18.7899C28.9541 17.7936 27.2304 16.807 24.2099 16.807C20.6218 16.807 18.85 17.5151 18.0584 18.1104C17.4832 18.5431 17.019 19.2061 17.0189 20.7575C17.0189 26.2707 17.0066 32.2187 16.9946 36.787C16.9886 39.0712 16.9826 41.0112 16.978 42.3802C16.9758 43.0647 16.9735 43.6073 16.9722 43.978C16.9715 44.1632 16.9716 44.3061 16.9712 44.4023C16.9711 44.4502 16.9704 44.4868 16.9703 44.5112V44.5485C16.9609 46.9803 14.9455 48.9447 12.4686 48.9358C9.9917 48.9267 7.99108 46.9478 8.00003 44.516L12.4851 44.5323L8.00003 44.5151V44.4788C8.00012 44.4544 8.00083 44.4177 8.001 44.3698C8.00136 44.2738 8.00132 44.1313 8.00198 43.9465C8.00329 43.5764 8.00556 43.0351 8.00782 42.3516C8.01233 40.9841 8.01834 39.046 8.02436 36.7641C8.03641 32.1992 8.0487 26.2598 8.0487 20.7575C8.04874 17.0665 9.36801 13.5528 12.6039 11.1191C15.6236 8.84803 19.69 8.00002 24.2099 8C29.2976 8 33.6951 9.73052 36.6004 13.0027C39.5055 16.2747 40.4774 20.6019 39.6411 24.8752C38.6157 30.1141 34.3028 32.8449 31.4174 34.1409C29.8728 34.8347 28.408 35.2719 27.345 35.5371C26.8071 35.6712 26.3547 35.7652 26.0252 35.8276C25.86 35.8588 25.7237 35.8825 25.6222 35.8992C25.5716 35.9076 25.529 35.9142 25.4957 35.9193C25.4792 35.9218 25.4649 35.9242 25.4529 35.926C25.4468 35.9269 25.4412 35.9281 25.4363 35.9289C25.4339 35.9292 25.4316 35.9295 25.4295 35.9298C25.4284 35.93 25.4261 35.9297 25.4256 35.9298C25.4233 35.9238 25.3987 35.7624 24.7774 31.5732L25.4227 35.9308C22.9718 36.2809 20.6961 34.6139 20.339 32.2077C19.9932 29.8762 21.5755 27.7056 23.9033 27.2538L24.1223 27.2165ZM24.1106 27.2184C24.1108 27.2184 24.1121 27.2178 24.1145 27.2175C24.1162 27.2172 24.1187 27.2169 24.1213 27.2165H24.1223C24.1157 27.2176 24.1116 27.2183 24.1106 27.2184ZM24.1281 27.2155L24.1252 27.2165C24.1242 27.2166 24.1232 27.2164 24.1223 27.2165L24.1281 27.2155Z" fill="var(--fill-0, white)"/>
<path id="Ellipse 91 (Stroke)" d="M69.2098 9.74991C73.035 8.15262 77.2567 7.87145 81.2577 8.96153C85.2522 10.0499 88.7554 12.4286 91.3152 15.6814C92.9303 17.7342 92.5445 20.6845 90.4538 22.2704C88.3629 23.8562 85.358 23.4774 83.7427 21.4247C82.3826 19.6965 80.6048 18.5323 78.6998 18.0131C76.8011 17.4958 74.8001 17.6236 72.9542 18.3944C71.1005 19.1686 69.4446 20.5767 68.2764 22.4969C67.1059 24.421 66.5076 26.7298 66.6071 29.0916C66.7067 31.453 67.4958 33.6819 68.8108 35.4684C70.1225 37.2505 71.8711 38.481 73.765 39.0682C75.6518 39.6532 77.6543 39.5929 79.5164 38.8895C81.3863 38.1831 83.0774 36.8385 84.2994 34.9667C85.7252 32.7829 88.6849 32.1478 90.9093 33.5476C93.1335 34.9475 93.7812 37.8524 92.3557 40.0363C90.0927 43.5025 86.8228 46.1952 82.9523 47.6573C79.074 49.1223 74.8444 49.2541 70.884 48.0262C66.9305 46.8004 63.509 44.3045 61.0552 40.9709C58.6048 37.6417 57.2216 33.6217 57.0471 29.4796C56.8725 25.3378 57.9123 21.2137 60.0615 17.6806C62.2131 14.1437 65.3926 11.3439 69.2098 9.74991Z" fill="var(--fill-0, white)"/>
<path id="Vector 159 (Stroke)" d="M116.795 33.6475C109.886 33.6475 105.016 35.4017 101.757 37.404C100.148 38.3928 98.9795 39.4121 98.1793 40.2403C97.7801 40.6535 97.4731 41.0188 97.2478 41.3086C97.1353 41.4535 97.0426 41.5799 96.9695 41.6842C96.9329 41.7364 96.9003 41.7839 96.8731 41.8247C96.8596 41.8449 96.8474 41.8638 96.8361 41.8811C96.8305 41.8897 96.8247 41.898 96.8196 41.9059C96.8171 41.9097 96.8151 41.9137 96.8128 41.9174C96.8116 41.9193 96.8095 41.9222 96.8089 41.9231C96.8071 41.9258 96.8055 41.9286 100.705 44.3169L96.806 41.9288C95.4294 44.0954 96.102 46.9475 98.3088 48.299C100.447 49.6082 103.24 49.0287 104.664 47.0213L104.783 46.8436C104.779 46.8499 104.775 46.8561 104.772 46.8617C104.764 46.8731 104.758 46.8835 104.752 46.8923C104.74 46.91 104.731 46.9221 104.726 46.9296C104.716 46.9445 104.719 46.94 104.736 46.9181C104.77 46.8742 104.86 46.7625 105.013 46.6037C105.319 46.2872 105.879 45.7803 106.753 45.2429C108.463 44.1928 111.59 42.8941 116.795 42.894C122.001 42.894 125.175 44.1933 126.933 45.2582C127.831 45.8024 128.412 46.3178 128.733 46.6429C128.894 46.8055 128.991 46.9207 129.029 46.9688C129.048 46.9924 129.053 46.9995 129.044 46.9869C129.039 46.9804 129.03 46.9684 129.018 46.9516C129.013 46.9433 129.006 46.9337 128.999 46.9229C128.995 46.9173 128.991 46.911 128.987 46.9047L129.111 47.0815C130.567 49.0662 133.369 49.6014 135.485 48.2588C137.669 46.873 138.296 44.0114 136.885 41.8667L133.023 44.3169C136.885 41.8666 136.883 41.8636 136.881 41.861C136.88 41.86 136.879 41.857 136.878 41.8553C136.876 41.8517 136.873 41.8485 136.87 41.8447C136.865 41.837 136.859 41.8284 136.854 41.8199C136.842 41.803 136.829 41.7844 136.816 41.7645C136.788 41.7247 136.756 41.6789 136.719 41.6278C136.645 41.5254 136.551 41.4009 136.437 41.258C136.208 40.972 135.896 40.6104 135.491 40.2011C134.681 39.3815 133.5 38.3707 131.879 37.3887C128.599 35.4011 123.705 33.6475 116.795 33.6475Z" fill="var(--fill-0, white)"/>
<path id="Vector 242 (Stroke)" d="M43.6498 44.3758L43.6498 12.7927C43.6498 10.2391 45.7578 8.16943 48.3587 8.16943C50.9596 8.16943 53.0677 10.2391 53.0677 12.7927L53.0677 44.3758C53.0675 46.9292 50.9595 48.9991 48.3587 48.9991C45.758 48.9991 43.65 46.9292 43.6498 44.3758Z" fill="var(--fill-0, white)"/>
<path id="Vector 243 (Stroke)" d="M149.61 44.3758L149.61 12.7927C149.61 10.2391 151.718 8.16943 154.319 8.16943C156.92 8.16943 159.028 10.2391 159.028 12.7927L159.028 44.3758C159.028 46.9292 156.92 48.9991 154.319 48.9991C151.719 48.9991 149.611 46.9292 149.61 44.3758Z" fill="var(--fill-0, white)"/>
<path id="Vector 244 (Stroke)" d="M174.157 44.3753L174.157 15.6208C174.157 13.0673 176.265 10.9976 178.866 10.9976C181.466 10.9976 183.575 13.0673 183.575 15.6208L183.575 44.3753C183.575 46.9289 181.466 48.9986 178.866 48.9986C176.265 48.9986 174.157 46.9289 174.157 44.3753Z" fill="var(--fill-0, white)"/>
<path id="Vector 245 (Stroke)" d="M167.479 8.81396L190.291 8.81396C192.892 8.81396 195 10.8837 195 13.4372C195 15.9908 192.892 18.0605 190.291 18.0605H167.479C164.878 18.0605 162.77 15.9908 162.77 13.4372C162.77 10.8837 164.878 8.81396 167.479 8.81396Z" fill="var(--fill-0, white)"/>
</g>
<path id="Vector 256 (Stroke)" d="M96.4497 12.0024C96.6417 9.52466 98.8059 7.67187 101.284 7.86377C103.762 8.05579 105.614 10.2199 105.422 12.6978V12.6987C105.422 12.701 105.422 12.7056 105.421 12.7114C105.42 12.7231 105.419 12.7419 105.417 12.7671C105.414 12.8177 105.408 12.8947 105.401 12.9956C105.387 13.1982 105.367 13.4964 105.345 13.8677C105.301 14.6121 105.249 15.6439 105.213 16.7915C105.14 19.1895 105.157 21.7348 105.388 23.3003C105.827 26.2774 107.015 27.2102 107.86 27.4917C109.004 27.8731 109.728 27.9695 110.496 27.8501C111.32 27.7218 112.661 27.2663 114.801 25.7104C116.877 24.2015 120.696 20.3094 124.273 16.4331C125.995 14.5663 127.568 12.8079 128.709 11.5151C129.28 10.8696 129.741 10.3414 130.059 9.97607C130.218 9.79344 130.342 9.65171 130.424 9.55615C130.466 9.50838 130.496 9.47163 130.517 9.44775C130.527 9.43585 130.536 9.42708 130.541 9.42139C130.543 9.41876 130.544 9.41675 130.545 9.41553L130.547 9.41357C132.169 7.53067 135.01 7.31865 136.893 8.93994C138.776 10.5613 138.989 13.4022 137.368 15.2856L137.367 15.2866V15.2876C137.366 15.2881 137.365 15.2887 137.365 15.2896C137.363 15.2915 137.36 15.2948 137.357 15.2983C137.351 15.3055 137.342 15.3155 137.331 15.3286C137.307 15.3555 137.273 15.3948 137.229 15.4458C137.141 15.5477 137.012 15.6966 136.847 15.8862C136.517 16.2656 136.041 16.8096 135.455 17.4731C134.284 18.7989 132.667 20.6078 130.888 22.5356C127.462 26.2488 123.026 30.8572 120.092 32.9897C117.223 35.0752 114.559 36.3257 111.88 36.7427C109.145 37.1685 106.869 36.6493 105.013 36.0308C99.8579 34.3123 97.2253 29.6355 96.4848 24.6128C96.126 22.1784 96.1435 18.9202 96.2173 16.5151C96.2557 15.2612 96.3129 14.1412 96.3608 13.3345C96.3848 12.9303 96.4065 12.6026 96.4223 12.3735C96.4303 12.259 96.4373 12.1687 96.4419 12.106C96.4442 12.0747 96.4464 12.0501 96.4477 12.0327C96.4484 12.0241 96.4483 12.0173 96.4487 12.0122C96.4489 12.0099 96.4496 12.0079 96.4497 12.0063V12.0034C96.4497 12.0031 96.4497 12.0024 100.936 12.3501L96.4497 12.0024Z" fill="var(--fill-0, white)"/>
</g>
</svg>
