<svg preserveAspectRatio="none" width="100%" height="100%" overflow="visible" style="display: block;" viewBox="0 0 100 100" fill="none" xmlns="http://www.w3.org/2000/svg">
<g id="Frame 2085663436">
<g id="Group 54">
<path id="Vector 156 (Stroke)" d="M49.2533 9C59.382 9 64.5276 15.2721 66.9616 20.7964C68.1767 23.5541 68.8031 26.2688 69.1298 28.2648C69.2944 29.2707 69.3857 30.1144 69.4365 30.7157C69.462 31.0168 69.4776 31.2586 69.4867 31.4311C69.4912 31.5172 69.4944 31.5862 69.4963 31.6369C69.4973 31.6622 69.4977 31.6832 69.4982 31.6992C69.4985 31.7072 69.4991 31.7141 69.4992 31.7197V31.7304C69.497 31.7318 69.4098 31.7347 66.0434 31.807L69.4992 31.7331C69.5434 33.4959 68.032 34.9581 66.1234 34.9991C64.2171 35.0399 62.6353 33.6473 62.5876 31.8872C62.5875 31.8842 62.587 31.8756 62.5866 31.864C62.5857 31.8405 62.5838 31.7997 62.5808 31.7429C62.5747 31.6281 62.564 31.448 62.5442 31.2128C62.5043 30.7415 62.4297 30.0526 62.2934 29.2198C62.0182 27.5382 61.5026 25.3492 60.5573 23.2036C58.6703 18.9209 55.4208 15.386 49.2533 15.386C46.0062 15.386 43.7568 16.3379 42.0985 17.6684C40.3726 19.0535 39.1142 20.9944 38.2212 23.1439C37.3328 25.2826 36.8731 27.467 36.6404 29.1477C36.5252 29.9795 36.4687 30.6678 36.4408 31.1388C36.4268 31.3737 36.4198 31.5533 36.4166 31.668C36.4151 31.7252 36.4141 31.7665 36.4137 31.7901V31.8133L36.4089 31.9709C36.3165 33.6582 34.8066 35 32.957 35C31.0478 35 29.5002 33.5705 29.5002 31.807H32.957C29.5002 31.807 29.5002 31.8057 29.5002 31.8043V31.7732C29.5003 31.7572 29.5008 31.7361 29.5011 31.7108C29.5018 31.6601 29.5026 31.5911 29.505 31.505C29.5098 31.3325 29.5189 31.0907 29.5368 30.7896C29.5725 30.1881 29.6434 29.3437 29.7828 28.337C30.0593 26.3401 30.6182 23.6208 31.7668 20.8561C32.9108 18.1023 34.7082 15.1395 37.5654 12.8469C40.4904 10.5 44.3524 9 49.2533 9Z" fill="var(--fill-0, white)"/>
<path id="Vector 154" d="M8.73987 80.5218L17.2702 36.0384C17.9276 32.61 20.9268 30.1313 24.4176 30.1313H75.5827C79.0735 30.1313 82.0727 32.61 82.7302 36.0384L91.2605 80.5218C92.3361 86.1309 88.0374 91.3322 82.3261 91.3322H17.6742C11.9629 91.3322 7.66425 86.1309 8.73987 80.5218Z" fill="var(--fill-0, white)"/>
</g>
<path id="Vector 256 (Stroke)" d="M30.0101 42.3745C30.1594 40.4474 31.8427 39.0065 33.7698 39.1558C35.697 39.3051 37.1389 40.9883 36.9895 42.9155L36.9886 42.9175C36.9884 42.9201 36.9881 42.925 36.9876 42.9311C36.9867 42.9434 36.9856 42.963 36.9837 42.9888C36.9799 43.0408 36.9742 43.1197 36.9671 43.2222C36.9528 43.4276 36.9327 43.7284 36.9104 44.103C36.8658 44.8543 36.8122 45.8959 36.7767 47.0552C36.7031 49.4539 36.7172 52.0786 36.9622 53.7407C37.4346 56.9452 38.7831 58.2946 40.1067 58.7358C41.33 59.1436 42.2274 59.2858 43.2132 59.1323C44.2432 58.9719 45.7311 58.4284 47.9524 56.814C50.1239 55.2357 54.0117 51.264 57.5716 47.4058C59.3002 45.5322 60.8767 43.7685 62.0218 42.4722C62.5938 41.8245 63.0577 41.2951 63.3772 40.9282C63.5369 40.7448 63.6601 40.6016 63.7435 40.5054C63.7851 40.4573 63.8173 40.4212 63.8382 40.397C63.8485 40.385 63.8556 40.3755 63.8606 40.3696C63.8632 40.3667 63.8653 40.3641 63.8665 40.3628L63.8675 40.3618C65.1286 38.8969 67.3391 38.7315 68.804 39.9927C70.2687 41.2537 70.434 43.4633 69.1731 44.9282L66.5208 42.645L69.1722 44.9292C69.1717 44.9297 69.171 44.9312 69.1702 44.9321C69.1686 44.934 69.1663 44.9366 69.1634 44.9399C69.1574 44.9469 69.1484 44.957 69.137 44.9702C69.1141 44.9968 69.0802 45.0358 69.0364 45.0864C68.9488 45.1876 68.8211 45.336 68.6565 45.5249C68.3276 45.9027 67.853 46.4445 67.2688 47.106C66.1011 48.4281 64.4887 50.2316 62.7161 52.1528C59.2733 55.8842 54.9063 60.4129 52.0677 62.4761C49.2792 64.5028 46.7619 65.6644 44.2893 66.0493C41.7727 66.4411 39.6695 65.9687 37.8929 65.3765C33.2167 63.8177 30.7444 59.5575 30.0374 54.7622C29.6928 52.4244 29.7068 49.2456 29.7806 46.8413C29.8186 45.5993 29.8757 44.4888 29.9231 43.689C29.9469 43.2885 29.968 42.9639 29.9837 42.7378C29.9915 42.6247 29.9977 42.5355 30.0022 42.4741C30.0045 42.4436 30.0068 42.4195 30.0081 42.4028C30.0087 42.3946 30.0087 42.388 30.0091 42.3833C30.0093 42.3809 30.0099 42.3789 30.0101 42.3774V42.3745Z" fill="var(--fill-0, #32CFC6)"/>
</g>
</svg>
