<svg preserveAspectRatio="none" width="100%" height="100%" overflow="visible" style="display: block;" viewBox="0 0 34.5933 13.4687" fill="none" xmlns="http://www.w3.org/2000/svg">
<path id="Rectangle 123" fill-rule="evenodd" clip-rule="evenodd" d="M11.3324 8.89805C11.3324 9.67996 11.9663 10.3138 12.7482 10.3138H32.1311C32.7167 11.2897 33.5368 12.3246 34.5933 13.4687H6.73436C3.01507 13.4687 0 10.4537 0 6.73437C0 3.01508 3.01508 0 6.73436 0H34.5933C33.5814 1.14682 32.7836 2.18301 32.2018 3.15433H9.02736C8.24544 3.15433 7.61158 3.78819 7.61158 4.57011C7.61158 5.35202 8.24544 5.98589 9.02736 5.98589H31.0952C31.0175 6.48767 31.0096 6.98369 31.0718 7.48226H12.7482C11.9663 7.48226 11.3324 8.11613 11.3324 8.89805Z" fill="var(--fill-0, #F1F0F5)"/>
</svg>
