<svg preserveAspectRatio="none" width="100%" height="100%" overflow="visible" style="display: block;" viewBox="0 0 15.3859 11.4879" fill="none" xmlns="http://www.w3.org/2000/svg">
<path id="Vector 178 (Stroke)" d="M7.59796 0C11.4939 0 13.4732 2.7713 14.4094 5.21215C14.8768 6.43065 15.1178 7.63011 15.2434 8.51202C15.3067 8.95649 15.3418 9.32924 15.3614 9.59491C15.3712 9.72795 15.3772 9.83479 15.3807 9.91101C15.3824 9.94907 15.3836 9.97956 15.3844 10.0019C15.3848 10.0131 15.3849 10.0224 15.3851 10.0295C15.3852 10.033 15.3854 10.0361 15.3855 10.0385V10.0433C15.3846 10.0439 15.3511 10.0452 14.0562 10.0771L15.3855 10.0444C15.4025 10.8233 14.8211 11.4694 14.087 11.4875C13.3538 11.5055 12.7453 10.8902 12.727 10.1125V10.1122C12.7269 10.1108 12.7268 10.1074 12.7266 10.1023C12.7262 10.0919 12.7255 10.0739 12.7244 10.0488C12.722 9.99805 12.7179 9.91849 12.7103 9.81456C12.6949 9.60632 12.6662 9.30194 12.6138 8.934C12.5079 8.19099 12.3096 7.22378 11.946 6.27576C11.2202 4.38348 9.97027 2.82159 7.59796 2.82159C6.34899 2.82159 5.48376 3.2422 4.84593 3.83009C4.18204 4.44206 3.69801 5.29963 3.35453 6.24939C3.01279 7.19435 2.83599 8.15951 2.74647 8.90211C2.70217 9.26965 2.68043 9.57377 2.66967 9.78189C2.66431 9.88565 2.66162 9.96501 2.6604 10.0157C2.65979 10.041 2.65941 10.0592 2.65929 10.0696V10.0799L2.65743 10.1495C2.6219 10.895 2.04109 11.4879 1.32964 11.4879C0.595302 11.4879 3.77645e-10 10.8563 3.77645e-10 10.0771H1.32964C0 10.0771 -3.61921e-07 10.0765 3.77645e-10 10.0759V10.0622C4.07651e-05 10.0551 0.000240904 10.0458 0.000370995 10.0346C0.000632955 10.0122 0.000937986 9.98171 0.00185497 9.94368C0.00369327 9.86744 0.00722464 9.76063 0.0140978 9.62759C0.0278297 9.36179 0.0550768 8.98874 0.108701 8.5439C0.21507 7.66159 0.43006 6.46009 0.871836 5.23853C1.31187 4.02178 2.00325 2.71268 3.10225 1.69973C4.22737 0.66276 5.71285 0 7.59796 0Z" fill="var(--fill-0, #3D3A45)"/>
</svg>
