<svg preserveAspectRatio="none" width="100%" height="100%" overflow="visible" style="display: block;" viewBox="0 0 13.9478 11.1295" fill="none" xmlns="http://www.w3.org/2000/svg">
<path id="Vector 170 (Stroke)" d="M6.88811 0C10.4479 3.1231e-05 12.2329 2.72544 13.0693 5.07493C13.4897 6.25591 13.7067 7.4186 13.8198 8.27369C13.8768 8.70449 13.9085 9.06554 13.926 9.32271C13.9348 9.45149 13.9399 9.55501 13.9431 9.62853C13.9446 9.66525 13.9458 9.69478 13.9465 9.71623C13.9468 9.72679 13.947 9.73543 13.9472 9.74209C13.9472 9.7454 13.9474 9.74839 13.9475 9.75071V9.7552C13.9471 9.75575 13.9256 9.75679 12.7274 9.78631L13.9475 9.75633C13.9625 10.4979 13.4285 11.1126 12.7546 11.1292C12.0816 11.1457 11.5236 10.5593 11.5073 9.81892V9.81817C11.5073 9.81677 11.5071 9.81329 11.507 9.80805C11.5066 9.79755 11.506 9.77944 11.5049 9.75446C11.5028 9.70432 11.4989 9.62627 11.492 9.52434C11.478 9.31979 11.4518 9.0211 11.4041 8.66047C11.3079 7.93251 11.1276 6.98433 10.7966 6.05461C10.1302 4.18266 8.99577 2.68647 6.88811 2.68644C5.77667 2.68644 5.00448 3.08842 4.42919 3.65975C3.82794 4.25686 3.38681 5.09694 3.07356 6.03024C2.76241 6.95732 2.60162 7.90362 2.52021 8.63123C2.4799 8.99156 2.46021 9.28992 2.45041 9.49436C2.44552 9.59631 2.44301 9.67435 2.44189 9.72447C2.44133 9.7495 2.44098 9.76759 2.44087 9.77807V9.78856L2.43917 9.85527C2.40655 10.5651 1.87345 11.1295 1.22044 11.1295C0.546408 11.1295 2.25189e-10 10.5282 2.25189e-10 9.78631H1.22044C0 9.78631 -2.49182e-07 9.78574 2.25189e-10 9.78519V9.77244C3.56952e-05 9.76575 0.000225049 9.75689 0.000340524 9.74621C0.000572864 9.72475 0.000880705 9.69526 0.00170262 9.65851C0.00334837 9.58496 0.00642189 9.48152 0.0125994 9.35269C0.0249364 9.0954 0.0494898 8.73411 0.0977302 8.30292C0.193436 7.44748 0.386944 6.28295 0.784225 5.09929C1.17943 3.92184 1.80124 2.6511 2.79399 1.66516C3.8127 0.653484 5.16582 0 6.88811 0Z" fill="var(--fill-0, #AAECEA)"/>
</svg>
