<svg preserveAspectRatio="none" width="100%" height="100%" overflow="visible" style="display: block;" viewBox="0 0 36.3555 29.9346" fill="none" xmlns="http://www.w3.org/2000/svg">
<g id="Vector">
<path d="M28.4642 17.6541C28.4642 15.3226 30.1815 13.4325 32.2999 13.4325H32.402C33.7737 13.4325 34.9419 14.5301 35.1571 16.0211L36.3203 24.0804C36.5894 25.9448 35.2805 27.6323 33.5653 27.6323H32.2999C30.1815 27.6323 28.4642 25.7422 28.4642 23.4107V17.6541Z" fill="var(--fill-0, #1FA89F)"/>
<path d="M7.89123 17.6541C7.89123 15.3226 6.17395 13.4325 4.05557 13.4325H3.95342C2.58174 13.4325 1.41359 14.5301 1.1984 16.0211L0.0351778 24.0804C-0.233911 25.9448 1.07501 27.6323 2.7902 27.6323H4.05557C6.17395 27.6323 7.89123 25.7422 7.89123 23.4107V17.6541Z" fill="var(--fill-0, #1FA89F)"/>
<path d="M3.84024 26.3822L5.80471 11.9011C6.73253 5.06168 12.0691 0 18.3523 0C24.6354 0 29.972 5.06167 30.8998 11.9011L32.8643 26.3822C33.1181 28.253 31.8014 29.9346 30.0827 29.9346H6.62177C4.90315 29.9346 3.58645 28.253 3.84024 26.3822Z" fill="#32CFC6"/>
<path d="M8.65514 21.8542L10.2158 16.5029H26.4883L28.049 21.8542C28.7714 24.3312 27.0926 26.8649 24.7289 26.8649H11.9753C9.61154 26.8649 7.93273 24.3312 8.65514 21.8542Z" fill="var(--fill-0, #1FA89F)"/>
</g>
</svg>
