<svg preserveAspectRatio="none" width="100%" height="100%" overflow="visible" style="display: block;" viewBox="0 0 36.375 36.375" fill="none" xmlns="http://www.w3.org/2000/svg">
<g id="Group 68">
<path id="Rectangle 113" d="M36.375 23.5838H27.581C25.3734 23.5838 23.5838 25.3734 23.5838 27.581V36.375H3.99725C1.78963 36.375 0 34.5854 0 32.3777V3.99725C0 1.78963 1.78963 0 3.99725 0H32.3777C34.5854 0 36.375 1.78963 36.375 3.99725V23.5838Z" fill="var(--fill-0, #32CFC6)"/>
<path id="Vector 157 (Stroke)" d="M15.508 23.3916C13.9584 23.3916 12.765 22.7662 11.9168 21.8278C11.1092 20.9344 10.6595 19.812 10.3987 18.8182C10.1341 17.8102 10.0355 16.8238 10.0005 16.1044C9.98283 15.741 9.981 15.4364 9.98371 15.2195C9.98507 15.1109 9.98766 15.0237 9.98995 14.9615C9.99111 14.9303 9.9922 14.9052 9.99308 14.8869L9.99464 14.8572C9.99469 14.8563 9.99459 14.8553 9.99464 14.8545L9.99503 14.8533L11.3917 14.9337L9.99503 14.8522C10.0401 14.0809 10.7017 13.4921 11.4729 13.537C12.2441 13.582 12.833 14.2435 12.7884 15.0145L12.7884 15.0134C12.7884 15.0145 12.7882 15.0172 12.788 15.0212C12.7876 15.0296 12.7868 15.0442 12.7861 15.0645C12.7846 15.1056 12.7828 15.1703 12.7818 15.2546C12.7797 15.4237 12.781 15.6708 12.7954 15.969C12.8248 16.5731 12.9064 17.3515 13.105 18.1081C13.3073 18.8789 13.6036 19.5213 13.9923 19.9514C14.3404 20.3365 14.7937 20.5935 15.508 20.5935C16.147 20.5935 16.9999 20.2224 18.0321 19.3584C19.0321 18.5213 20.0245 17.3691 20.9192 16.1626C21.8074 14.9647 22.5651 13.7596 23.1024 12.8496C23.3703 12.396 23.5814 12.0188 23.7247 11.757C23.7962 11.6263 23.8506 11.5245 23.8866 11.4564C23.9047 11.4224 23.9183 11.3968 23.9269 11.3803C23.9311 11.3722 23.9344 11.3664 23.9362 11.3628C23.9372 11.361 23.9379 11.3595 23.9382 11.3589L23.9382 11.3585C23.9382 11.3585 23.9382 11.3587 23.9386 11.3589C24.2924 10.6721 25.1356 10.4021 25.8224 10.7558C26.5093 11.1095 26.7792 11.9531 26.4255 12.64L25.388 12.1056C26.409 12.6314 26.4254 12.64 26.4255 12.6404L26.424 12.6435C26.423 12.6453 26.4216 12.6476 26.4201 12.6506C26.417 12.6565 26.4127 12.6649 26.4072 12.6755C26.396 12.6969 26.3799 12.7277 26.3592 12.7669C26.3176 12.8452 26.2572 12.9582 26.1792 13.1006C26.0234 13.3853 25.797 13.7889 25.5117 14.2721C24.9427 15.2358 24.131 16.5291 23.1668 17.8294C22.2091 19.121 21.0664 20.4673 19.8281 21.5038C18.6219 22.5135 17.1332 23.3916 15.508 23.3916Z" fill="var(--fill-0, white)"/>
</g>
</svg>
