<svg preserveAspectRatio="none" width="100%" height="100%" overflow="visible" style="display: block;" viewBox="0 0 41.95 32.5164" fill="none" xmlns="http://www.w3.org/2000/svg">
<g id="Group 25">
<path id="Vector 187" d="M2.06903 11.1826L0.962262 7.86102C0.429988 6.26357 1.28816 4.5362 2.88274 3.99538L13.2287 0.486462C14.1326 0.179898 15.1215 0.326001 15.9441 0.81007C19.7784 3.06638 22.6216 3.10193 26.1518 0.904542C27.005 0.373457 28.0456 0.194942 28.996 0.521553L39.0828 3.98779C40.6707 4.53344 41.5224 6.25653 40.9917 7.84944L39.8883 11.161C39.3674 12.7243 37.7022 13.5945 36.1213 13.1296L32.4514 12.0502L36.142 27.8191C36.7038 30.2192 34.8822 32.5163 32.4172 32.5163H9.77909C7.31931 32.5163 5.4988 30.2283 6.05143 27.8315L9.68996 12.0502L5.8132 13.1578C4.23762 13.608 2.58702 12.7372 2.06903 11.1826Z" fill="var(--fill-0, #94A3B8)"/>
<circle id="Ellipse 74" cx="20.9748" cy="11.0881" r="1.5285" fill="var(--fill-0, white)"/>
<circle id="Ellipse 75" cx="20.9748" cy="17.2023" r="1.5285" fill="var(--fill-0, white)"/>
<circle id="Ellipse 76" cx="20.9748" cy="23.3166" r="1.5285" fill="var(--fill-0, white)"/>
</g>
</svg>
