<svg preserveAspectRatio="none" width="100%" height="100%" overflow="visible" style="display: block;" viewBox="0 0 41.95 32.5163" fill="none" xmlns="http://www.w3.org/2000/svg">
<g id="Group 27">
<path id="Vector 187" d="M2.06897 11.1825L0.962203 7.86089C0.429929 6.26344 1.2881 4.53607 2.88268 3.99526L13.2287 0.486336C14.1326 0.179772 15.1215 0.325875 15.9441 0.809944C19.7784 3.06626 22.6215 3.1018 26.1517 0.904416C27.0049 0.373331 28.0455 0.194816 28.996 0.521426L39.0827 3.98766C40.6706 4.53331 41.5223 6.25641 40.9916 7.84931L39.8882 11.1608C39.3673 12.7242 37.7021 13.5944 36.1212 13.1294L32.4513 12.0501L36.142 27.819C36.7037 30.2191 34.8822 32.5162 32.4172 32.5162H9.77903C7.31925 32.5162 5.49874 30.2282 6.05137 27.8313L9.6899 12.0501L5.81314 13.1577C4.23756 13.6079 2.58696 12.7371 2.06897 11.1825Z" fill="var(--fill-0, #94A3B8)"/>
<circle id="Ellipse 74" cx="20.9749" cy="11.0873" r="1.5285" fill="var(--fill-0, white)"/>
<circle id="Ellipse 75" cx="20.9749" cy="17.2015" r="1.5285" fill="var(--fill-0, white)"/>
<circle id="Ellipse 76" cx="20.9749" cy="23.3157" r="1.5285" fill="var(--fill-0, white)"/>
</g>
</svg>
