<svg preserveAspectRatio="none" width="100%" height="100%" overflow="visible" style="display: block;" viewBox="0 0 19.8484 19.8484" fill="none" xmlns="http://www.w3.org/2000/svg">
<g id="Group 68">
<path id="Rectangle 113" d="M19.8484 12.8687H15.0499C13.8453 12.8687 12.8687 13.8453 12.8687 15.0499V19.8484H2.18114C0.976529 19.8484 0 18.8719 0 17.6672V2.18114C0 0.97653 0.97653 0 2.18114 0H17.6672C18.8719 0 19.8484 0.97653 19.8484 2.18114V12.8687Z" fill="var(--fill-0, #32CFC6)"/>
<path id="Vector 157 (Stroke)" d="M8.46222 12.7634C7.61663 12.7634 6.96543 12.4221 6.5026 11.9101C6.06193 11.4226 5.81654 10.8101 5.67423 10.2679C5.52989 9.71783 5.47605 9.17958 5.45697 8.78707C5.44734 8.58876 5.44633 8.42256 5.44781 8.30419C5.44855 8.24494 5.44997 8.19737 5.45122 8.1634C5.45185 8.1464 5.45244 8.13271 5.45292 8.12271L5.45377 8.10652C5.4538 8.106 5.45375 8.10545 5.45377 8.10503L6.21611 8.14827L5.45399 8.10376C5.47858 7.68291 5.83956 7.36164 6.26041 7.38615C6.68119 7.41069 7.00257 7.77162 6.97823 8.19236C6.9782 8.19296 6.97812 8.1938 6.97802 8.19599C6.9778 8.20057 6.97736 8.20852 6.97695 8.21963C6.97612 8.24207 6.97519 8.27734 6.97461 8.32336C6.97346 8.41561 6.97416 8.55043 6.98207 8.71316C6.99809 9.04281 7.04263 9.46756 7.15098 9.88041C7.26135 10.301 7.42303 10.6515 7.63513 10.8862C7.82509 11.0964 8.07242 11.2366 8.46222 11.2366C8.81085 11.2366 9.27629 11.0341 9.83949 10.5627C10.3851 10.1059 10.9267 9.47717 11.4149 8.8188C11.8995 8.16516 12.313 7.5076 12.6062 7.01106C12.7523 6.76353 12.8675 6.55771 12.9457 6.41486C12.9847 6.34353 13.0144 6.28796 13.0341 6.25085C13.0439 6.23229 13.0513 6.2183 13.056 6.20932C13.0584 6.20487 13.0601 6.20169 13.0611 6.19973C13.0617 6.19875 13.062 6.19794 13.0622 6.1976C13.062 6.19749 13.0622 6.19761 13.0622 6.1976C13.2553 5.82288 13.7156 5.67553 14.0904 5.86851C14.4652 6.06155 14.6125 6.52186 14.4195 6.89667L13.8533 6.60507C14.4105 6.89199 14.4194 6.89645 14.4195 6.89667L14.4186 6.89859C14.4181 6.89956 14.4173 6.90081 14.4165 6.90242C14.4148 6.90568 14.4125 6.91028 14.4094 6.91606C14.4034 6.92771 14.3946 6.94452 14.3832 6.9659C14.3606 7.00866 14.3276 7.0703 14.2851 7.14802C14.2 7.30337 14.0765 7.52358 13.9208 7.78724C13.6103 8.31309 13.1674 9.01877 12.6413 9.72832C12.1187 10.4331 11.4952 11.1677 10.8195 11.7333C10.1613 12.2843 9.349 12.7634 8.46222 12.7634Z" fill="var(--fill-0, white)"/>
</g>
</svg>
