<svg preserveAspectRatio="none" width="100%" height="100%" overflow="visible" style="display: block;" viewBox="0 0 17.6768 20" fill="none" xmlns="http://www.w3.org/2000/svg">
<g id="Vector">
<path d="M1.62829 7.22199C1.62829 3.23339 4.86168 0 8.85028 0C12.8389 0 16.0723 3.2334 16.0723 7.22199V11.4775L17.3386 13.4931C18.167 14.8117 17.3975 16.5527 15.8569 16.7789C10.6962 17.5367 6.85396 17.5701 1.79421 16.8004C0.26677 16.5681 -0.483906 14.8394 0.338019 13.5312L1.62829 11.4775V7.22199Z" fill="var(--fill-0, #94A3B8)"/>
<path d="M11.1581 17.6923C11.1581 18.9668 10.1249 20 8.85036 20C7.57585 20 6.54266 18.9668 6.54266 17.6923C6.54266 16.4178 7.57585 15.3846 8.85036 15.3846C10.1249 15.3846 11.1581 16.4178 11.1581 17.6923Z" fill="var(--fill-0, #94A3B8)"/>
</g>
</svg>
