<svg preserveAspectRatio="none" width="100%" height="100%" overflow="visible" style="display: block;" viewBox="0 0 14.333 14.333" fill="none" xmlns="http://www.w3.org/2000/svg">
<g id="Message circle">
<path id="Subtract" d="M7.16699 0C11.1249 0.000175807 14.333 3.20906 14.333 7.16699C14.3328 11.1248 11.1248 14.3328 7.16699 14.333C5.90901 14.333 4.72496 14.0088 3.69629 13.4385C3.63336 13.4036 3.57197 13.4025 3.52832 13.418L1.84668 14.0117C0.816309 14.3757 -0.17659 13.3829 0.1875 12.3525L0.806641 10.6016C0.82149 10.5595 0.820639 10.5009 0.789062 10.4395C0.284438 9.45794 5.23927e-05 8.34491 0 7.16699C0 3.20895 3.20895 0 7.16699 0ZM3.86621 6.36621C3.40612 6.36639 3.0332 6.74007 3.0332 7.2002C3.03338 7.66017 3.40623 8.03303 3.86621 8.0332C4.32634 8.0332 4.70002 7.66028 4.7002 7.2002C4.7002 6.73996 4.32645 6.36621 3.86621 6.36621ZM7.2002 6.36621C6.73996 6.36621 6.36621 6.73996 6.36621 7.2002C6.36639 7.66028 6.74007 8.0332 7.2002 8.0332C7.66017 8.03303 8.03303 7.66017 8.0332 7.2002C8.0332 6.74007 7.66028 6.36639 7.2002 6.36621ZM10.5332 6.36621C10.073 6.36621 9.7002 6.73996 9.7002 7.2002C9.70037 7.66028 10.0731 8.0332 10.5332 8.0332C10.9933 8.0332 11.366 7.66028 11.3662 7.2002C11.3662 6.73996 10.9934 6.36621 10.5332 6.36621Z" fill="var(--fill-0, #94A3B8)"/>
</g>
</svg>
