<svg preserveAspectRatio="none" width="100%" height="100%" overflow="visible" style="display: block;" viewBox="0 0 8.82416 6.2096" fill="none" xmlns="http://www.w3.org/2000/svg">
<path id="Vector 156 (Stroke)" d="M4.35761 0C6.59206 0 7.7272 1.49798 8.26415 2.81734C8.53219 3.47598 8.6704 4.12433 8.74246 4.60103C8.77878 4.84128 8.79891 5.04276 8.81012 5.18637C8.81574 5.25828 8.81918 5.31603 8.82119 5.35723C8.82219 5.3778 8.82288 5.39428 8.82332 5.40638C8.82353 5.41243 8.82363 5.41745 8.82374 5.42127C8.8238 5.42317 8.82392 5.42483 8.82395 5.42616V5.42872C8.82346 5.42904 8.80423 5.42975 8.06158 5.44702L8.82395 5.42936C8.83371 5.85037 8.50027 6.19959 8.07924 6.20939C7.6587 6.21913 7.30976 5.88652 7.29921 5.46617V5.46595C7.29919 5.46525 7.2991 5.46339 7.299 5.46063C7.2988 5.45501 7.29839 5.44527 7.29773 5.4317C7.29639 5.40428 7.29403 5.36127 7.28964 5.3051C7.28085 5.19253 7.26438 5.028 7.23432 4.82912C7.17361 4.4275 7.05987 3.90469 6.85133 3.39226C6.43505 2.36942 5.71819 1.52516 4.35761 1.52516C3.6413 1.52516 3.14507 1.75252 2.77925 2.07029C2.3985 2.40108 2.1209 2.86463 1.9239 3.378C1.72791 3.88878 1.62651 4.41048 1.57517 4.81189C1.54976 5.01055 1.53729 5.17494 1.53112 5.28744C1.52805 5.34352 1.5265 5.38642 1.5258 5.41382C1.52545 5.42748 1.52523 5.43735 1.52516 5.44297V5.44851L1.5241 5.48617C1.50372 5.88913 1.17061 6.2096 0.762582 6.2096C0.34142 6.2096 2.16588e-10 5.86818 2.16588e-10 5.44702H0.762582C0 5.44702 -2.07571e-07 5.4467 2.16588e-10 5.44638V5.43893C2.33798e-05 5.43511 0.000138164 5.43007 0.000212774 5.42404C0.000363015 5.41194 0.000537957 5.39544 0.00106387 5.37489C0.00211818 5.33368 0.00414351 5.27595 0.00808541 5.20403C0.015961 5.06036 0.0315879 4.85871 0.0623428 4.61826C0.123348 4.14134 0.24665 3.49189 0.500019 2.8316C0.752391 2.1739 1.14891 1.4663 1.77922 0.918758C2.4245 0.358244 3.27646 0 4.35761 0Z" fill="var(--fill-0, #32CFC6)"/>
</svg>
