<svg preserveAspectRatio="none" width="100%" height="100%" overflow="visible" style="display: block;" viewBox="0 0 17.6827 10.2375" fill="none" xmlns="http://www.w3.org/2000/svg">
<path id="Vector 163 (Stroke)" d="M8.69137 0C10.1172 1.92007e-06 11.3746 0.660916 12.2994 1.30918C13.2649 1.98595 14.1428 2.84477 14.8583 3.63534C15.583 4.43605 16.1952 5.22737 16.6237 5.81337C16.8393 6.10819 17.0117 6.35553 17.132 6.53203C17.1921 6.62032 17.2394 6.69124 17.2728 6.74174C17.2895 6.76699 17.303 6.78719 17.3126 6.80195C17.3174 6.80933 17.3212 6.8155 17.3242 6.82013C17.3257 6.82244 17.327 6.82443 17.328 6.82604C17.3285 6.82681 17.329 6.82748 17.3294 6.82808C17.3296 6.82839 17.33 6.82883 17.3301 6.82899C17.3301 6.82949 17.3114 6.84194 15.6035 7.94231L17.3301 6.82899C17.9912 7.85515 17.6957 9.2238 16.6696 9.88495C15.644 10.5457 14.277 10.2504 13.6154 9.22559C13.6157 9.22606 13.6156 9.22578 13.6154 9.22559C13.6153 9.22541 13.6149 9.22472 13.6148 9.22445C13.6149 9.22468 13.6146 9.22422 13.6148 9.22445C13.614 9.22322 13.6123 9.22074 13.6107 9.21832C13.6059 9.21108 13.5978 9.19857 13.5864 9.18128C13.5634 9.1466 13.5273 9.09243 13.4791 9.02178C13.3826 8.8802 13.2385 8.67306 13.0554 8.42263C12.6864 7.91805 12.1721 7.25518 11.5808 6.60178C10.9802 5.93824 10.3523 5.3429 9.76198 4.92907C9.13096 4.48674 8.78233 4.42058 8.69137 4.42058C8.61202 4.42058 8.28897 4.47762 7.69915 4.90658C7.14426 5.31015 6.55649 5.89501 5.99463 6.55339C5.44201 7.20093 4.96562 7.85883 4.62479 8.36038C4.45574 8.60913 4.32327 8.81468 4.2349 8.95498C4.19079 9.02501 4.15778 9.07855 4.13697 9.11267C4.12662 9.12964 4.11935 9.14182 4.11516 9.14879C4.11306 9.15228 4.11179 9.15455 4.1113 9.15538L4.11175 9.15447C3.48919 10.204 2.13364 10.5506 1.08374 9.92835C0.033615 9.30598 -0.313177 7.95001 0.309183 6.89988L2.21069 8.02683C0.336141 6.91588 0.309323 6.9005 0.309183 6.89988C0.309279 6.89972 0.310125 6.89862 0.310319 6.89829C0.310709 6.89763 0.311185 6.89685 0.311682 6.89602L0.326223 6.87148C0.335258 6.85645 0.347673 6.83591 0.363259 6.81036C0.394416 6.75928 0.438548 6.68779 0.494585 6.59883C0.606569 6.42105 0.76705 6.17212 0.968543 5.87562C1.36884 5.28658 1.94383 4.4903 2.63217 3.68374C3.31128 2.88797 4.15435 2.0187 5.09897 1.33167C6.00862 0.670084 7.25397 0 8.69137 0Z" fill="var(--fill-0, #FF6842)"/>
</svg>
